name rise30.6535peak61.5555fall82.9339.mot
datacolumns 19
datarows 24
range 11.67162000000000 11.70995600000000
endheader
time	ground_force1_vx	ground_force1_vy	ground_force1_vz	ground_force1_px	ground_force1_py	ground_force1_pz	ground_force2_vx	ground_force2_vy	ground_force2_vz	ground_force2_px	ground_force2_py	ground_force2_pz	ground_torque1_x	ground_torque1_y	ground_torque1_z	ground_torque2_x	ground_torque2_y	ground_torque2_z	
11.67162000000000	28.11264000000000	691.40056600000003	38.20755800000000	0.27669900000000	0.00000000000000	0.08340900000000	0.00000000000000	0.00000000000000	0.00000000000000	0.00000000000000	0.00000000000000	0.00000000000000	0.00000000000000	17.62171000000000	0.00000000000000	0.00000000000000	0.00000000000000	0.00000000000000	
11.67328400000000	27.79486700000000	691.37224400000002	38.12943700000000	0.27596000000000	0.00000000000000	0.08332300000000	0.00000000000000	0.00000000000000	0.00000000000000	0.00000000000000	0.00000000000000	0.00000000000000	0.00000000000000	17.59559900000000	0.00000000000000	0.00000000000000	0.00000000000000	0.00000000000000	
11.67495300000000	27.46848400000000	691.40175899999997	38.05551100000000	0.27524000000000	0.00000000000000	0.08323700000000	0.00000000000000	0.00000000000000	0.00000000000000	0.00000000000000	0.00000000000000	0.00000000000000	0.00000000000000	17.57492000000000	0.00000000000000	0.00000000000000	0.00000000000000	0.00000000000000	
11.67661400000000	27.13327600000000	691.48905000000002	37.98574300000000	0.27453800000000	0.00000000000000	0.08315000000000	0.00000000000000	0.00000000000000	0.00000000000000	0.00000000000000	0.00000000000000	0.00000000000000	0.00000000000000	17.55962400000000	0.00000000000000	0.00000000000000	0.00000000000000	0.00000000000000	
11.67828400000000	26.78904700000000	691.63403100000005	37.92010800000000	0.27385300000000	0.00000000000000	0.08306400000000	0.00000000000000	0.00000000000000	0.00000000000000	0.00000000000000	0.00000000000000	0.00000000000000	0.00000000000000	17.54965900000000	0.00000000000000	0.00000000000000	0.00000000000000	0.00000000000000	
11.67995300000000	26.43562100000000	691.83659899999998	37.85859000000000	0.27318300000000	0.00000000000000	0.08297700000000	0.00000000000000	0.00000000000000	0.00000000000000	0.00000000000000	0.00000000000000	0.00000000000000	0.00000000000000	17.54496900000000	0.00000000000000	0.00000000000000	0.00000000000000	0.00000000000000	
11.68162300000000	26.07284000000000	692.09662700000001	37.80118600000000	0.27252800000000	0.00000000000000	0.08288900000000	0.00000000000000	0.00000000000000	0.00000000000000	0.00000000000000	0.00000000000000	0.00000000000000	0.00000000000000	17.54549300000000	0.00000000000000	0.00000000000000	0.00000000000000	0.00000000000000	
11.68328900000000	25.70056700000000	692.41396099999997	37.74790100000000	0.27188600000000	0.00000000000000	0.08280200000000	0.00000000000000	0.00000000000000	0.00000000000000	0.00000000000000	0.00000000000000	0.00000000000000	0.00000000000000	17.55117100000000	0.00000000000000	0.00000000000000	0.00000000000000	0.00000000000000	
11.68495000000000	25.31868400000000	692.78842399999996	37.69875400000000	0.27125500000000	0.00000000000000	0.08271600000000	0.00000000000000	0.00000000000000	0.00000000000000	0.00000000000000	0.00000000000000	0.00000000000000	0.00000000000000	17.56193600000000	0.00000000000000	0.00000000000000	0.00000000000000	0.00000000000000	
11.68661900000000	24.92709400000000	693.21981100000005	37.65377200000000	0.27063400000000	0.00000000000000	0.08262900000000	0.00000000000000	0.00000000000000	0.00000000000000	0.00000000000000	0.00000000000000	0.00000000000000	0.00000000000000	17.57772000000000	0.00000000000000	0.00000000000000	0.00000000000000	0.00000000000000	
11.68828100000000	24.52571900000000	693.70788700000003	37.61299200000000	0.27002100000000	0.00000000000000	0.08254200000000	0.00000000000000	0.00000000000000	0.00000000000000	0.00000000000000	0.00000000000000	0.00000000000000	0.00000000000000	17.59845200000000	0.00000000000000	0.00000000000000	0.00000000000000	0.00000000000000	
11.68995500000000	24.11450000000000	694.25238300000001	37.57646400000000	0.26941500000000	0.00000000000000	0.08245700000000	0.00000000000000	0.00000000000000	0.00000000000000	0.00000000000000	0.00000000000000	0.00000000000000	0.00000000000000	17.62405900000000	0.00000000000000	0.00000000000000	0.00000000000000	0.00000000000000	
11.69161700000000	23.69340100000000	694.85300099999995	37.54424300000000	0.26881400000000	0.00000000000000	0.08237100000000	0.00000000000000	0.00000000000000	0.00000000000000	0.00000000000000	0.00000000000000	0.00000000000000	0.00000000000000	17.65446300000000	0.00000000000000	0.00000000000000	0.00000000000000	0.00000000000000	
11.69328500000000	23.26240400000000	695.50940300000002	37.51639700000000	0.26821600000000	0.00000000000000	0.08228700000000	0.00000000000000	0.00000000000000	0.00000000000000	0.00000000000000	0.00000000000000	0.00000000000000	0.00000000000000	17.68958400000000	0.00000000000000	0.00000000000000	0.00000000000000	0.00000000000000	
11.69494900000000	22.82151200000000	696.22121400000003	37.49299900000000	0.26762000000000	0.00000000000000	0.08220300000000	0.00000000000000	0.00000000000000	0.00000000000000	0.00000000000000	0.00000000000000	0.00000000000000	0.00000000000000	17.72934000000000	0.00000000000000	0.00000000000000	0.00000000000000	0.00000000000000	
11.69661400000000	22.37074900000000	696.98802100000000	37.47413300000000	0.26702300000000	0.00000000000000	0.08212100000000	0.00000000000000	0.00000000000000	0.00000000000000	0.00000000000000	0.00000000000000	0.00000000000000	0.00000000000000	17.77364600000000	0.00000000000000	0.00000000000000	0.00000000000000	0.00000000000000	
11.69828900000000	21.91015700000000	697.80936499999996	37.45988600000000	0.26642500000000	0.00000000000000	0.08203900000000	0.00000000000000	0.00000000000000	0.00000000000000	0.00000000000000	0.00000000000000	0.00000000000000	0.00000000000000	17.82241300000000	0.00000000000000	0.00000000000000	0.00000000000000	0.00000000000000	
11.69995600000000	21.43980100000000	698.68474700000002	37.45035500000000	0.26582400000000	0.00000000000000	0.08195900000000	0.00000000000000	0.00000000000000	0.00000000000000	0.00000000000000	0.00000000000000	0.00000000000000	0.00000000000000	17.87555000000000	0.00000000000000	0.00000000000000	0.00000000000000	0.00000000000000	
11.70161800000000	20.95976400000000	699.61361999999997	37.44564100000000	0.26521800000000	0.00000000000000	0.08188000000000	0.00000000000000	0.00000000000000	0.00000000000000	0.00000000000000	0.00000000000000	0.00000000000000	0.00000000000000	17.93296200000000	0.00000000000000	0.00000000000000	0.00000000000000	0.00000000000000	
11.70328400000000	20.47015000000000	700.59538699999996	37.44584900000000	0.26460600000000	0.00000000000000	0.08180300000000	0.00000000000000	0.00000000000000	0.00000000000000	0.00000000000000	0.00000000000000	0.00000000000000	0.00000000000000	17.99455200000000	0.00000000000000	0.00000000000000	0.00000000000000	0.00000000000000	
11.70495100000000	19.97108200000000	701.62940400000002	37.45108800000000	0.26398600000000	0.00000000000000	0.08172700000000	0.00000000000000	0.00000000000000	0.00000000000000	0.00000000000000	0.00000000000000	0.00000000000000	0.00000000000000	18.06022000000000	0.00000000000000	0.00000000000000	0.00000000000000	0.00000000000000	
11.70661800000000	19.46270200000000	702.71497499999998	37.46147200000000	0.26335700000000	0.00000000000000	0.08165300000000	0.00000000000000	0.00000000000000	0.00000000000000	0.00000000000000	0.00000000000000	0.00000000000000	0.00000000000000	18.12986200000000	0.00000000000000	0.00000000000000	0.00000000000000	0.00000000000000	
11.70828100000000	18.94517500000000	703.85135100000002	37.47711500000000	0.26271700000000	0.00000000000000	0.08158000000000	0.00000000000000	0.00000000000000	0.00000000000000	0.00000000000000	0.00000000000000	0.00000000000000	0.00000000000000	18.20337000000000	0.00000000000000	0.00000000000000	0.00000000000000	0.00000000000000	
11.70995600000000	18.41868000000000	705.03772800000002	37.49813200000000	0.26206600000000	0.00000000000000	0.08151000000000	0.00000000000000	0.00000000000000	0.00000000000000	0.00000000000000	0.00000000000000	0.00000000000000	0.00000000000000	18.28063400000000	0.00000000000000	0.00000000000000	0.00000000000000	0.00000000000000	
